<svg xmlns="http://www.w3.org/2000/svg" version="1.1" xmlns:xlink="http://www.w3.org/1999/xlink" xmlns:svgjs="http://svgjs.dev/svgjs" viewBox="0 0 2400 800"><defs><linearGradient x1="50%" y1="0%" x2="50%" y2="100%" id="sssurf-grad"><stop stop-color="hsla(0, 58%, 8%, 1.00)" stop-opacity="1" offset="0%"></stop><stop stop-color="hsl(208, 74%, 93%)" stop-opacity="1" offset="100%"></stop></linearGradient></defs><g fill="url(#sssurf-grad)" transform="matrix(1,0,0,1,0,-90.60781860351562)"><path d="M 0 306.14085309646254 Q 450 554.8121655205896 600 307.58414766627465 Q 1050 499.3121081328656 1200 319.6112200661391 Q 1650 559.4615347435974 1800 317.0919529224183 Q 2250 649.2637274282615 2400 301.2156042570948 L 2400 800 L 0 800 L 0 341.14325155011124 Z" transform="matrix(1,0,0,1,0,35)" opacity="0.05"></path><path d="M 0 306.14085309646254 Q 450 554.8121655205896 600 307.58414766627465 Q 1050 499.3121081328656 1200 319.6112200661391 Q 1650 559.4615347435974 1800 317.0919529224183 Q 2250 649.2637274282615 2400 301.2156042570948 L 2400 800 L 0 800 L 0 341.14325155011124 Z" transform="matrix(1,0,0,1,0,70)" opacity="0.21"></path><path d="M 0 306.14085309646254 Q 450 554.8121655205896 600 307.58414766627465 Q 1050 499.3121081328656 1200 319.6112200661391 Q 1650 559.4615347435974 1800 317.0919529224183 Q 2250 649.2637274282615 2400 301.2156042570948 L 2400 800 L 0 800 L 0 341.14325155011124 Z" transform="matrix(1,0,0,1,0,105)" opacity="0.37"></path><path d="M 0 306.14085309646254 Q 450 554.8121655205896 600 307.58414766627465 Q 1050 499.3121081328656 1200 319.6112200661391 Q 1650 559.4615347435974 1800 317.0919529224183 Q 2250 649.2637274282615 2400 301.2156042570948 L 2400 800 L 0 800 L 0 341.14325155011124 Z" transform="matrix(1,0,0,1,0,140)" opacity="0.53"></path><path d="M 0 306.14085309646254 Q 450 554.8121655205896 600 307.58414766627465 Q 1050 499.3121081328656 1200 319.6112200661391 Q 1650 559.4615347435974 1800 317.0919529224183 Q 2250 649.2637274282615 2400 301.2156042570948 L 2400 800 L 0 800 L 0 341.14325155011124 Z" transform="matrix(1,0,0,1,0,175)" opacity="0.68"></path><path d="M 0 306.14085309646254 Q 450 554.8121655205896 600 307.58414766627465 Q 1050 499.3121081328656 1200 319.6112200661391 Q 1650 559.4615347435974 1800 317.0919529224183 Q 2250 649.2637274282615 2400 301.2156042570948 L 2400 800 L 0 800 L 0 341.14325155011124 Z" transform="matrix(1,0,0,1,0,210)" opacity="0.84"></path><path d="M 0 306.14085309646254 Q 450 554.8121655205896 600 307.58414766627465 Q 1050 499.3121081328656 1200 319.6112200661391 Q 1650 559.4615347435974 1800 317.0919529224183 Q 2250 649.2637274282615 2400 301.2156042570948 L 2400 800 L 0 800 L 0 341.14325155011124 Z" transform="matrix(1,0,0,1,0,245)" opacity="1"></path></g></svg>